<svg width="64pt" height="56pt" viewBox="0 0 64 56" xmlns="http://www.w3.org/2000/svg"><path d="M26.62 9.19c1.72-3.07 3.46-6.12 5.23-9.16 1.78 3.04 3.51 6.1 5.25 9.16-3.49.02-6.98.02-10.48 0zm.03 1.56c3.48-.03 6.96-.02 10.44-.01-1.74 3.05-3.47 6.09-5.23 9.13-1.77-3.02-3.51-6.06-5.21-9.12zm-1.37.76c1.76 3.05 3.52 6.09 5.25 9.15-3.5.01-7 .01-10.5 0 1.76-3.04 3.5-6.1 5.25-9.15zm13.14.01c1.78 3.03 3.49 6.1 5.25 9.14-3.51.03-7.01-.02-10.52.02 1.76-3.05 3.5-6.12 5.27-9.16zM20.03 22.2c3.5 0 7-.01 10.5.01-1.73 3.06-3.49 6.11-5.24 9.15-1.76-3.04-3.51-6.1-5.26-9.16zm13.13 0c3.49 0 6.99 0 10.49.01-1.72 3.06-3.46 6.11-5.23 9.14-1.78-3.04-3.49-6.11-5.26-9.15zm-14.45.79c1.76 3.03 3.5 6.09 5.25 9.14-3.48 0-6.96.01-10.45-.01 1.71-3.06 3.46-6.09 5.2-9.13zm21.06 9.13c1.72-3.05 3.45-6.1 5.22-9.11 1.76 3.02 3.5 6.06 5.22 9.11-3.48.02-6.96.02-10.44 0zm-26.3 1.57c3.5-.04 6.99-.03 10.48-.01-1.72 3.07-3.47 6.14-5.25 9.18-1.75-3.06-3.48-6.12-5.23-9.17zm26.29 0c3.49-.04 6.97-.03 10.46 0-1.71 3.06-3.45 6.11-5.22 9.14-1.78-3.03-3.53-6.07-5.24-9.14zm6.53 9.97c1.77-3.06 3.48-6.14 5.28-9.18 1.76 3.07 3.5 6.13 5.27 9.19-3.52-.01-7.03.01-10.55-.01zm-39.4 0c1.74-3.05 3.47-6.12 5.27-9.14 1.78 3.02 3.52 6.08 5.25 9.13-3.5.02-7.01.02-10.52.01zm.03 1.55c3.48-.01 6.97-.02 10.46 0-1.73 3.05-3.47 6.09-5.23 9.12-1.77-3.03-3.49-6.08-5.23-9.12zm26.25 0c3.49-.01 6.98-.02 10.47 0-1.72 3.05-3.45 6.09-5.21 9.11-1.77-3.03-3.5-6.08-5.26-9.11zm13.18-.01h10.46c-1.76 3.04-3.49 6.09-5.25 9.13-1.76-3.03-3.51-6.07-5.21-9.13zm-40.78.76c1.78 3.03 3.52 6.09 5.23 9.16-3.48.02-6.96.02-10.45-.01 1.73-3.06 3.49-6.1 5.22-9.15zm21.05 9.15c1.73-3.05 3.47-6.1 5.23-9.14 1.78 3.03 3.52 6.09 5.25 9.15-3.49.02-6.99.03-10.48-.01zm13.14.01c1.72-3.06 3.45-6.12 5.24-9.15 1.76 3.04 3.5 6.09 5.22 9.15-3.48.02-6.97.02-10.46 0zm13.13 0c1.72-3.06 3.46-6.11 5.24-9.14 1.76 3.03 3.5 6.08 5.22 9.14-3.49.02-6.98.02-10.46 0z" fill="#fff"/></svg>